<svg xmlns="http://www.w3.org/2000/svg" width="256" height="256" viewBox="0 0 100 100"><rect width="100" height="100" rx="50" fill="#110b3a"></rect><path d="M19.94 44L19.94 44L18.06 50.08L24.34 50.08L22.46 44Q22.30 43.64 22.12 43.48Q21.94 43.32 21.70 43.32L21.70 43.32L20.70 43.32Q20.46 43.32 20.28 43.48Q20.10 43.64 19.94 44ZM17.66 57.36L17.66 62.96Q17.66 63.72 17.32 64.06Q16.98 64.40 16.22 64.40L16.22 64.40L10.34 64.40Q9.58 64.40 9.24 64.06Q8.90 63.72 8.90 62.96L8.90 62.96L8.90 52.40Q8.90 51.20 9.28 49.64Q9.66 48.08 10.46 46L10.46 46L13.94 36.92Q14.18 36.24 14.68 35.92Q15.18 35.60 15.98 35.60L15.98 35.60L26.74 35.60Q27.50 35.60 28 35.92Q28.50 36.24 28.74 36.92L28.74 36.92L32.22 46Q33.02 48.08 33.40 49.64Q33.78 51.20 33.78 52.40L33.78 52.40L33.78 62.96Q33.78 63.72 33.44 64.06Q33.10 64.40 32.34 64.40L32.34 64.40L26.30 64.40Q25.50 64.40 25.12 64.06Q24.74 63.72 24.74 62.96L24.74 62.96L24.74 57.36L17.66 57.36ZM60.50 64.40L60.50 64.40L40.14 64.40Q39.38 64.40 39.04 64.06Q38.70 63.72 38.70 62.96L38.70 62.96L38.70 37.04Q38.70 36.28 39.04 35.94Q39.38 35.60 40.14 35.60L40.14 35.60L46.34 35.60Q47.10 35.60 47.44 35.94Q47.78 36.28 47.78 37.04L47.78 37.04L47.78 56.84L53.26 56.84L53.26 50.36Q53.26 49.60 53.60 49.26Q53.94 48.92 54.70 48.92L54.70 48.92L60.50 48.92Q61.26 48.92 61.60 49.26Q61.94 49.60 61.94 50.36L61.94 50.36L61.94 62.96Q61.94 63.72 61.60 64.06Q61.26 64.40 60.50 64.40ZM73.94 64.40L73.94 64.40L67.94 64.40Q67.18 64.40 66.84 64.06Q66.50 63.72 66.50 62.96L66.50 62.96L66.50 37.04Q66.50 36.28 66.84 35.94Q67.18 35.60 67.94 35.60L67.94 35.60L72.10 35.60Q72.86 35.60 73.40 35.84Q73.94 36.08 74.46 36.68L74.46 36.68L82.22 45.56L82.22 37.04Q82.22 36.28 82.56 35.94Q82.90 35.60 83.66 35.60L83.66 35.60L89.66 35.60Q90.42 35.60 90.76 35.94Q91.10 36.28 91.10 37.04L91.10 37.04L91.10 62.96Q91.10 63.72 90.76 64.06Q90.42 64.40 89.66 64.40L89.66 64.40L83.66 64.40Q82.90 64.40 82.56 64.06Q82.22 63.72 82.22 62.96L82.22 62.96L82.22 58.04L75.38 49.76L75.38 62.96Q75.38 63.72 75.04 64.06Q74.70 64.40 73.94 64.40Z" fill="#fff"></path></svg>